<svg width="45" height="42" viewBox="0 0 45 42" fill="none" xmlns="http://www.w3.org/2000/svg">
<rect width="45" height="42" rx="5" fill="#FFEB36"/>
<path d="M21.0148 10.3238L9.36853 29.7663C9.12841 30.1821 9.00136 30.6536 9.00001 31.1337C8.99867 31.6139 9.12308 32.0861 9.36086 32.5032C9.59865 32.9204 9.94152 33.268 10.3554 33.5116C10.7692 33.7551 11.2396 33.886 11.7198 33.8913H35.0123C35.4924 33.886 35.9628 33.7551 36.3767 33.5116C36.7905 33.268 37.1334 32.9204 37.3712 32.5032C37.609 32.0861 37.7334 31.6139 37.732 31.1337C37.7307 30.6536 37.6036 30.1821 37.3635 29.7663L25.7173 10.3238C25.4722 9.91967 25.127 9.58556 24.7152 9.35369C24.3033 9.12181 23.8387 9 23.366 9C22.8934 9 22.4287 9.12181 22.0169 9.35369C21.605 9.58556 21.2599 9.91967 21.0148 10.3238Z" stroke="black" stroke-width="2" stroke-linecap="round" stroke-linejoin="round"/>
<path d="M23.3662 17.3916V22.8916" stroke="black" stroke-width="2" stroke-linecap="round" stroke-linejoin="round"/>
<path d="M23.3662 28.3916H23.381" stroke="black" stroke-width="2" stroke-linecap="round" stroke-linejoin="round"/>
</svg>
