<svg width="44" height="42" viewBox="0 0 44 42" fill="none" xmlns="http://www.w3.org/2000/svg">
<rect width="44" height="42" rx="5" fill="#B133FF"/>
<path d="M7.23408 21.6823C7.60379 18.3235 9.09461 15.3019 11.3245 12.9994L13.847 15.5217L15.0141 14.3546L12.5375 11.8781C14.9093 9.91747 17.9007 8.67897 21.1746 8.49981V12.6038H22.8252V8.49981C26.0991 8.67896 29.0906 9.9175 31.4624 11.8782L29.0859 14.2544L30.2529 15.4216L32.6754 12.9995C34.9052 15.302 36.396 18.3235 36.7657 21.6823H33.2937V23.3329H36.8555C36.8535 26.915 35.5828 30.1996 33.4668 32.7637L30.6439 29.9409L29.4767 31.1081L32.3465 33.9778L32.336 33.9879L33.4843 35.1737C36.5801 32.176 38.5062 27.9741 38.5062 23.324C38.5062 14.2124 31.1156 6.82666 21.9999 6.82666C12.8842 6.82666 5.49365 14.2124 5.49365 23.324C5.49365 27.8508 7.31892 31.953 10.272 34.9329L11.4444 33.771C11.4392 33.7658 11.4341 33.7607 11.4289 33.7554L13.9091 31.2751L12.742 30.1079L10.3334 32.5165C8.33739 29.99 7.14631 26.801 7.14428 23.3329H10.489V21.6823H7.23408Z" fill="white"/>
<path d="M19.9524 26.5591C19.6337 26.6203 19.3483 26.7957 19.1498 27.0524L17.7976 29.0573C17.647 30.0593 17.7538 30.458 18.3461 31.1046L20.5197 32.1647C20.8199 32.2878 21.1548 32.297 21.4614 32.1907L31.9557 27.3442C33.5168 26.8027 33.0987 25.1845 31.476 25.496L19.9524 26.5591Z" fill="white"/>
</svg>
