<svg width="34" height="36" viewBox="0 0 34 36" fill="none" xmlns="http://www.w3.org/2000/svg">
<path d="M25.5 12.6C25.5 10.0539 24.5518 7.61212 22.864 5.81177C21.1761 4.01143 18.8869 3 16.5 3C14.1131 3 11.8239 4.01143 10.136 5.81177C8.44821 7.61212 7.5 10.0539 7.5 12.6C7.5 23.8 3 27 3 27H30C30 27 25.5 23.8 25.5 12.6Z" stroke="black" stroke-width="3" stroke-linecap="round" stroke-linejoin="round"/>
<path d="M20 33C19.7459 33.3042 19.3813 33.5566 18.9425 33.7321C18.5038 33.9076 18.0063 34 17.5 34C16.9937 34 16.4962 33.9076 16.0575 33.7321C15.6187 33.5566 15.2541 33.3042 15 33" stroke="black" stroke-width="3" stroke-linecap="round" stroke-linejoin="round"/>
</svg>
