<svg width="63" height="84" viewBox="0 0 63 84" fill="none" xmlns="http://www.w3.org/2000/svg">
<path d="M31.4414 83.16C25.6094 83.16 20.4614 81.8733 15.9974 79.2998C11.5334 76.6528 8.00542 73.0499 5.41343 68.4912C2.89343 63.859 1.63343 58.565 1.63343 52.6092C1.63343 46.5799 2.89343 41.2859 5.41343 36.7272C8.00542 32.0949 11.5334 28.4921 15.9974 25.9186C20.4614 23.2716 25.6094 21.9481 31.4414 21.9481C37.2014 21.9481 42.3134 23.2716 46.7774 25.9186C51.2413 28.4921 54.7333 32.0949 57.2533 36.7272C59.8453 41.2859 61.1413 46.5799 61.1413 52.6092C61.1413 58.565 59.8813 63.859 57.3613 68.4912C54.8413 73.0499 51.3493 76.6528 46.8854 79.2998C42.4214 81.8733 37.2734 83.16 31.4414 83.16ZM31.4414 73.2337C35.1854 73.2337 38.4974 72.3514 41.3774 70.5867C44.2574 68.8221 46.4894 66.3957 48.0733 63.3075C49.7293 60.2193 50.5573 56.6532 50.5573 52.6092C50.5573 48.5652 49.7293 44.9991 48.0733 41.9109C46.4894 38.7492 44.2574 36.286 41.3774 34.5214C38.4974 32.7567 35.1854 31.8744 31.4414 31.8744C27.6974 31.8744 24.3854 32.7567 21.5054 34.5214C18.6254 36.286 16.3574 38.7492 14.7014 41.9109C13.0454 44.9991 12.2174 48.5652 12.2174 52.6092C12.2174 56.6532 13.0454 60.2193 14.7014 63.3075C16.3574 66.3957 18.6254 68.8221 21.5054 70.5867C24.3854 72.3514 27.6974 73.2337 31.4414 73.2337Z" fill="#0009E1"/>
<path d="M1.32874 1.07707C0.442913 1.79511 0 2.6807 0 3.73383L2.22108e-05 9.19102C4.58142e-05 14.267 4.02947 18.382 9 18.382H27V9.19098H14.5563C11.6051 9.19098 9.21258 6.74773 9.21258 3.73383C9.21258 2.6807 8.7992 1.79511 7.97243 1.07707C7.0866 0.359023 5.96456 0 4.60629 0C3.30708 0 2.21456 0.359023 1.32874 1.07707Z" fill="#0009E1"/>
<path d="M61.6713 1.07707C62.5571 1.79511 63 2.6807 63 3.73383L63 9.19102C62.9999 14.267 58.9705 18.382 54 18.382H36V9.19098H48.4437C51.3949 9.19098 53.7874 6.74773 53.7874 3.73383C53.7874 2.6807 54.2008 1.79511 55.0276 1.07707C55.9134 0.359023 57.0354 0 58.3937 0C59.6929 0 60.7854 0.359023 61.6713 1.07707Z" fill="#0009E1"/>
</svg>
