<svg width="430" height="107" viewBox="0 0 430 107" fill="none" xmlns="http://www.w3.org/2000/svg">
<g filter="url(#filter0_d_1694_1599)">
<path d="M0 38C0 26.9543 8.95431 18 20 18H137.428C143.963 18 150.366 20.0818 155.115 24.5714C162.684 31.727 173.248 43.6691 173.796 55C174.473 69 194 88.5 215.528 88.5C237.057 88.5 255.614 71.5 257.5 55C258.717 44.3498 270.237 32.033 278.252 24.6383C283.12 20.1474 289.592 18 296.215 18H410C421.046 18 430 26.9543 430 38V100.5C430 106.023 425.523 110.5 420 110.5H215.528H10C4.47715 110.5 0 106.023 0 100.5V38Z" fill="#FFF"/>
</g>
<defs>
<filter id="filter0_d_1694_1599" x="-14" y="0" width="458" height="120.5" filterUnits="userSpaceOnUse" color-interpolation-filters="sRGB">
<feFlood flood-opacity="0" result="BackgroundImageFix"/>
<feColorMatrix in="SourceAlpha" type="matrix" values="0 0 0 0 0 0 0 0 0 0 0 0 0 0 0 0 0 0 127 0" result="hardAlpha"/>
<feOffset dy="-4"/>
<feGaussianBlur stdDeviation="7"/>
<feComposite in2="hardAlpha" operator="out"/>
<feColorMatrix type="matrix" values="0 0 0 0 0 0 0 0 0 0.382999 0 0 0 0 0.467072 0 0 0 0.16 0"/>
<feBlend mode="normal" in2="BackgroundImageFix" result="effect1_dropShadow_1694_1599"/>
<feBlend mode="normal" in="SourceGraphic" in2="effect1_dropShadow_1694_1599" result="shape"/>
</filter>
</defs>
</svg>
