<svg width="28" height="28" viewBox="0 0 28 28" fill="none" xmlns="http://www.w3.org/2000/svg">
<path d="M9.78512 11.7507C9.78512 11.7507 8.50048 11.6522 8.17124 11.3008C7.84201 10.9494 7.84201 10.3796 8.17124 10.0282C8.50048 9.6768 9.03433 9.6768 9.36356 10.0282C9.69284 10.3796 9.78512 11.7507 9.78512 11.7507Z" fill="black"/>
<path d="M7.0266 9.58024L7.8856 5.4192C7.8856 5.4192 4.64781 5.13708 5.14339 2.06922C5.14339 2.06922 9.33928 3.55028 10.5287 2.28078C10.5287 2.28078 13.1581 -0.717705 17.356 2.26148C18.7566 3.25553 22.7412 2.04992 22.7412 2.04992C23.2368 5.11778 19.999 5.3999 19.999 5.3999L20.858 9.56093" stroke="black" stroke-width="1.3" stroke-miterlimit="10" stroke-linecap="round" stroke-linejoin="round"/>
<path d="M10.7634 18.4736H17.393C17.5077 18.4736 17.6174 18.5248 17.6915 18.6182C18.0485 19.0678 19.017 20.5741 18.5744 23.251C18.497 23.7192 18.0834 24.0347 17.6454 23.9486C16.1801 23.6604 12.8717 23.1435 10.5805 23.8018C10.1144 23.9357 9.65035 23.5975 9.59273 23.086C9.46542 21.9559 9.45964 20.1036 10.4402 18.6459C10.514 18.5362 10.6369 18.4736 10.7634 18.4736Z" stroke="black" stroke-width="1.3" stroke-miterlimit="10" stroke-linecap="round" stroke-linejoin="round"/>
<path d="M11.3467 20.3975C11.3467 20.3975 11.0573 21.682 12.6762 21.714" stroke="black" stroke-width="1.3" stroke-miterlimit="10" stroke-linecap="round" stroke-linejoin="round"/>
<path d="M11.0352 25.4316C11.0352 25.4316 13.7113 28.9932 16.8499 25.5727" stroke="black" stroke-width="1.3" stroke-miterlimit="10" stroke-linecap="round" stroke-linejoin="round"/>
<path d="M6.14108 6.84419C4.84935 5.96339 3.03039 4.78018 0.898927 5.34022C0.898927 5.34022 0.271191 11.6523 7.37446 12.3223L7.88593 12.7187C7.88593 12.7187 6.92032 16.7312 8.41785 19.9636" stroke="black" stroke-width="1.3" stroke-miterlimit="10" stroke-linecap="round" stroke-linejoin="round"/>
<path d="M18.1011 11.7302C18.1011 11.7302 19.3857 11.6317 19.715 11.2803C20.0442 10.9289 20.0442 10.3591 19.715 10.0077C19.3857 9.65629 18.8519 9.65629 18.5226 10.0077C18.1934 10.3591 18.1011 11.7302 18.1011 11.7302Z" fill="black"/>
<path d="M16.9589 20.3779C16.9589 20.3779 17.2483 21.6625 15.6294 21.6945" stroke="black" stroke-width="1.3" stroke-miterlimit="10" stroke-linecap="round" stroke-linejoin="round"/>
<path d="M21.8462 6.75585C23.1308 5.90637 24.9101 4.77535 26.9858 5.32072C26.9858 5.32072 27.6135 11.6328 20.5103 12.3028L19.9988 12.6992C19.9988 12.6992 21.0688 16.2885 19.5713 19.5209" stroke="black" stroke-width="1.3" stroke-miterlimit="10" stroke-linecap="round" stroke-linejoin="round"/>
</svg>
