<svg width="29" height="25" viewBox="0 0 29 25" fill="none" xmlns="http://www.w3.org/2000/svg">
<path d="M0 7.40593H22.0176V4.60369H0V7.40593ZM26.0208 0C24.9154 0 24.0192 0.896148 24.0192 2.0016V10.008C24.0192 11.1135 24.9154 12.0096 26.0208 12.0096C27.1263 12.0096 28.0224 11.1135 28.0224 10.008V2.0016C28.0224 0.896148 27.1263 0 26.0208 0ZM14.0112 16.6133V14.0112C14.0112 12.9058 13.1151 12.0096 12.0096 12.0096C10.9042 12.0096 10.008 12.9058 10.008 14.0112V22.0176C10.008 23.1231 10.9042 24.0192 12.0096 24.0192C13.1151 24.0192 14.0112 23.1231 14.0112 22.0176V19.4155H28.0224V16.6133H14.0112ZM0 19.4155H8.00641V16.6133H0V19.4155Z" fill="black"/>
</svg>
