<svg width="305" height="184" viewBox="0 0 305 184" fill="none" xmlns="http://www.w3.org/2000/svg">
<path d="M40.4429 6.58545V8.14062C40.4429 8.81771 40.3794 9.40804 40.2524 9.91162C40.1255 10.411 39.9393 10.8257 39.6938 11.1558C39.4526 11.4816 39.1564 11.7249 38.8052 11.8857C38.4582 12.0465 38.0604 12.127 37.6118 12.127C37.2563 12.127 36.9305 12.0762 36.6343 11.9746C36.3381 11.873 36.0736 11.7186 35.8408 11.5112C35.6123 11.2996 35.4176 11.0352 35.2568 10.7178C35.096 10.4004 34.9733 10.028 34.8887 9.60059C34.804 9.16895 34.7617 8.68229 34.7617 8.14062V6.58545C34.7617 5.90413 34.8252 5.31592 34.9521 4.8208C35.0833 4.32568 35.2695 3.9152 35.5107 3.58936C35.7562 3.26351 36.0545 3.0223 36.4058 2.86572C36.757 2.70492 37.1548 2.62451 37.5991 2.62451C37.9546 2.62451 38.2804 2.67741 38.5767 2.7832C38.8771 2.88477 39.1416 3.03711 39.3701 3.24023C39.6029 3.44336 39.7975 3.70361 39.9541 4.021C40.1149 4.33415 40.2355 4.70443 40.3159 5.13184C40.4006 5.55924 40.4429 6.04378 40.4429 6.58545ZM39.6875 8.22949V6.49023C39.6875 6.07129 39.6579 5.69043 39.5986 5.34766C39.5436 5.00488 39.4611 4.70443 39.3511 4.44629C39.241 4.18815 39.1014 3.97233 38.9321 3.79883C38.7671 3.62533 38.5724 3.49626 38.3481 3.41162C38.1281 3.32275 37.8784 3.27832 37.5991 3.27832C37.2563 3.27832 36.9538 3.34814 36.6914 3.48779C36.4333 3.62321 36.2174 3.82633 36.0439 4.09717C35.8704 4.36377 35.7393 4.69808 35.6504 5.1001C35.5658 5.50212 35.5234 5.96549 35.5234 6.49023V8.22949C35.5234 8.64421 35.5509 9.02295 35.606 9.36572C35.661 9.70426 35.7456 10.0047 35.8599 10.2671C35.9741 10.5295 36.1138 10.7516 36.2788 10.9336C36.4481 11.1113 36.6427 11.2467 36.8628 11.3398C37.0871 11.4287 37.3368 11.4731 37.6118 11.4731C37.9631 11.4731 38.2677 11.4033 38.5259 11.2637C38.784 11.1198 38.9998 10.9103 39.1733 10.6353C39.3468 10.356 39.4759 10.0153 39.5605 9.61328C39.6452 9.20703 39.6875 8.74577 39.6875 8.22949Z" fill="#717171"/>
<path d="M73.1533 7.42969L72.5566 7.2583L73.0073 2.75781H77.6284V3.46875H73.6548L73.3311 6.5791C73.4919 6.46484 73.7246 6.3527 74.0293 6.24268C74.3382 6.12842 74.6852 6.07129 75.0703 6.07129C75.4808 6.07129 75.8532 6.14111 76.1875 6.28076C76.526 6.41618 76.8159 6.61507 77.0571 6.87744C77.2983 7.13558 77.4845 7.44873 77.6157 7.81689C77.7469 8.18083 77.8125 8.59342 77.8125 9.05469C77.8125 9.49902 77.7575 9.90739 77.6475 10.2798C77.5374 10.6522 77.3703 10.978 77.146 11.2573C76.9217 11.5324 76.6361 11.7461 76.2891 11.8984C75.9421 12.0508 75.5295 12.127 75.0513 12.127C74.6831 12.127 74.3361 12.0762 74.0103 11.9746C73.6886 11.8688 73.4009 11.7101 73.147 11.4985C72.8931 11.2869 72.6857 11.0203 72.5249 10.6987C72.3683 10.3771 72.271 10.0005 72.2329 9.56885H72.9629C73.0137 9.98356 73.1258 10.3327 73.2993 10.6162C73.4728 10.8997 73.7056 11.1134 73.9976 11.2573C74.2938 11.4012 74.645 11.4731 75.0513 11.4731C75.3813 11.4731 75.6691 11.4202 75.9146 11.3145C76.1642 11.2087 76.3716 11.0542 76.5366 10.8511C76.7059 10.6437 76.8328 10.3919 76.9175 10.0957C77.0063 9.79525 77.0508 9.45247 77.0508 9.06738C77.0508 8.7373 77.0042 8.43473 76.9111 8.15967C76.818 7.88037 76.6805 7.63704 76.4985 7.42969C76.3208 7.2181 76.1007 7.05518 75.8384 6.94092C75.576 6.82666 75.2756 6.76953 74.937 6.76953C74.4969 6.76953 74.1457 6.82878 73.8833 6.94727C73.6252 7.06576 73.3818 7.22656 73.1533 7.42969Z" fill="#717171"/>
<path d="M112.739 2.71973V12H111.983V3.67822L109.47 4.61133V3.89404L112.612 2.71973H112.739ZM121.987 6.58545V8.14062C121.987 8.81771 121.924 9.40804 121.797 9.91162C121.67 10.411 121.484 10.8257 121.238 11.1558C120.997 11.4816 120.701 11.7249 120.35 11.8857C120.003 12.0465 119.605 12.127 119.156 12.127C118.801 12.127 118.475 12.0762 118.179 11.9746C117.882 11.873 117.618 11.7186 117.385 11.5112C117.157 11.2996 116.962 11.0352 116.801 10.7178C116.64 10.4004 116.518 10.028 116.433 9.60059C116.348 9.16895 116.306 8.68229 116.306 8.14062V6.58545C116.306 5.90413 116.37 5.31592 116.497 4.8208C116.628 4.32568 116.814 3.9152 117.055 3.58936C117.301 3.26351 117.599 3.0223 117.95 2.86572C118.301 2.70492 118.699 2.62451 119.144 2.62451C119.499 2.62451 119.825 2.67741 120.121 2.7832C120.422 2.88477 120.686 3.03711 120.915 3.24023C121.147 3.44336 121.342 3.70361 121.499 4.021C121.659 4.33415 121.78 4.70443 121.86 5.13184C121.945 5.55924 121.987 6.04378 121.987 6.58545ZM121.232 8.22949V6.49023C121.232 6.07129 121.202 5.69043 121.143 5.34766C121.088 5.00488 121.006 4.70443 120.896 4.44629C120.785 4.18815 120.646 3.97233 120.477 3.79883C120.312 3.62533 120.117 3.49626 119.893 3.41162C119.673 3.32275 119.423 3.27832 119.144 3.27832C118.801 3.27832 118.498 3.34814 118.236 3.48779C117.978 3.62321 117.762 3.82633 117.588 4.09717C117.415 4.36377 117.284 4.69808 117.195 5.1001C117.11 5.50212 117.068 5.96549 117.068 6.49023V8.22949C117.068 8.64421 117.095 9.02295 117.15 9.36572C117.205 9.70426 117.29 10.0047 117.404 10.2671C117.519 10.5295 117.658 10.7516 117.823 10.9336C117.993 11.1113 118.187 11.2467 118.407 11.3398C118.632 11.4287 118.881 11.4731 119.156 11.4731C119.507 11.4731 119.812 11.4033 120.07 11.2637C120.328 11.1198 120.544 10.9103 120.718 10.6353C120.891 10.356 121.02 10.0153 121.105 9.61328C121.19 9.20703 121.232 8.74577 121.232 8.22949Z" fill="#717171"/>
<path d="M156.905 2.71973V12H156.15V3.67822L153.636 4.61133V3.89404L156.778 2.71973H156.905ZM161.698 7.42969L161.101 7.2583L161.552 2.75781H166.173V3.46875H162.199L161.875 6.5791C162.036 6.46484 162.269 6.3527 162.574 6.24268C162.883 6.12842 163.23 6.07129 163.615 6.07129C164.025 6.07129 164.398 6.14111 164.732 6.28076C165.07 6.41618 165.36 6.61507 165.602 6.87744C165.843 7.13558 166.029 7.44873 166.16 7.81689C166.291 8.18083 166.357 8.59342 166.357 9.05469C166.357 9.49902 166.302 9.90739 166.192 10.2798C166.082 10.6522 165.915 10.978 165.69 11.2573C165.466 11.5324 165.181 11.7461 164.833 11.8984C164.486 12.0508 164.074 12.127 163.596 12.127C163.228 12.127 162.881 12.0762 162.555 11.9746C162.233 11.8688 161.945 11.7101 161.691 11.4985C161.438 11.2869 161.23 11.0203 161.069 10.6987C160.913 10.3771 160.815 10.0005 160.777 9.56885H161.507C161.558 9.98356 161.67 10.3327 161.844 10.6162C162.017 10.8997 162.25 11.1134 162.542 11.2573C162.838 11.4012 163.189 11.4731 163.596 11.4731C163.926 11.4731 164.214 11.4202 164.459 11.3145C164.709 11.2087 164.916 11.0542 165.081 10.8511C165.25 10.6437 165.377 10.3919 165.462 10.0957C165.551 9.79525 165.595 9.45247 165.595 9.06738C165.595 8.7373 165.549 8.43473 165.456 8.15967C165.362 7.88037 165.225 7.63704 165.043 7.42969C164.865 7.2181 164.645 7.05518 164.383 6.94092C164.12 6.82666 163.82 6.76953 163.481 6.76953C163.041 6.76953 162.69 6.82878 162.428 6.94727C162.17 7.06576 161.926 7.22656 161.698 7.42969Z" fill="#717171"/>
<path d="M203.325 11.3462V12H197.542V11.4097L200.57 7.97559C200.947 7.54818 201.247 7.17367 201.472 6.85205C201.696 6.5262 201.857 6.22998 201.954 5.96338C202.056 5.69255 202.106 5.43018 202.106 5.17627C202.106 4.80387 202.032 4.47591 201.884 4.19238C201.74 3.90885 201.525 3.68669 201.237 3.52588C200.949 3.36507 200.594 3.28467 200.17 3.28467C199.747 3.28467 199.379 3.37565 199.066 3.55762C198.753 3.73958 198.512 3.99349 198.342 4.31934C198.177 4.64095 198.095 5.007 198.095 5.41748H197.339C197.339 4.90967 197.451 4.44417 197.676 4.021C197.904 3.59782 198.23 3.26139 198.653 3.01172C199.076 2.75781 199.582 2.63086 200.17 2.63086C200.729 2.63086 201.209 2.73031 201.611 2.9292C202.013 3.12386 202.322 3.40527 202.538 3.77344C202.758 4.1416 202.868 4.58594 202.868 5.10645C202.868 5.38574 202.817 5.66715 202.716 5.95068C202.618 6.23421 202.483 6.51774 202.31 6.80127C202.14 7.08057 201.946 7.35775 201.726 7.63281C201.51 7.90788 201.283 8.17871 201.046 8.44531L198.469 11.3462H203.325ZM210.32 6.58545V8.14062C210.32 8.81771 210.257 9.40804 210.13 9.91162C210.003 10.411 209.817 10.8257 209.571 11.1558C209.33 11.4816 209.034 11.7249 208.683 11.8857C208.336 12.0465 207.938 12.127 207.489 12.127C207.134 12.127 206.808 12.0762 206.512 11.9746C206.215 11.873 205.951 11.7186 205.718 11.5112C205.49 11.2996 205.295 11.0352 205.134 10.7178C204.973 10.4004 204.851 10.028 204.766 9.60059C204.681 9.16895 204.639 8.68229 204.639 8.14062V6.58545C204.639 5.90413 204.703 5.31592 204.83 4.8208C204.961 4.32568 205.147 3.9152 205.388 3.58936C205.634 3.26351 205.932 3.0223 206.283 2.86572C206.634 2.70492 207.032 2.62451 207.477 2.62451C207.832 2.62451 208.158 2.67741 208.454 2.7832C208.755 2.88477 209.019 3.03711 209.248 3.24023C209.48 3.44336 209.675 3.70361 209.832 4.021C209.992 4.33415 210.113 4.70443 210.193 5.13184C210.278 5.55924 210.32 6.04378 210.32 6.58545ZM209.565 8.22949V6.49023C209.565 6.07129 209.535 5.69043 209.476 5.34766C209.421 5.00488 209.339 4.70443 209.229 4.44629C209.118 4.18815 208.979 3.97233 208.81 3.79883C208.645 3.62533 208.45 3.49626 208.226 3.41162C208.006 3.32275 207.756 3.27832 207.477 3.27832C207.134 3.27832 206.831 3.34814 206.569 3.48779C206.311 3.62321 206.095 3.82633 205.921 4.09717C205.748 4.36377 205.617 4.69808 205.528 5.1001C205.443 5.50212 205.401 5.96549 205.401 6.49023V8.22949C205.401 8.64421 205.428 9.02295 205.483 9.36572C205.538 9.70426 205.623 10.0047 205.737 10.2671C205.852 10.5295 205.991 10.7516 206.156 10.9336C206.326 11.1113 206.52 11.2467 206.74 11.3398C206.965 11.4287 207.214 11.4731 207.489 11.4731C207.84 11.4731 208.145 11.4033 208.403 11.2637C208.661 11.1198 208.877 10.9103 209.051 10.6353C209.224 10.356 209.353 10.0153 209.438 9.61328C209.523 9.20703 209.565 8.74577 209.565 8.22949Z" fill="#717171"/>
<path d="M247.492 11.3462V12H241.709V11.4097L244.737 7.97559C245.114 7.54818 245.414 7.17367 245.639 6.85205C245.863 6.5262 246.024 6.22998 246.121 5.96338C246.223 5.69255 246.273 5.43018 246.273 5.17627C246.273 4.80387 246.199 4.47591 246.051 4.19238C245.907 3.90885 245.692 3.68669 245.404 3.52588C245.116 3.36507 244.761 3.28467 244.337 3.28467C243.914 3.28467 243.546 3.37565 243.233 3.55762C242.92 3.73958 242.679 3.99349 242.509 4.31934C242.344 4.64095 242.262 5.007 242.262 5.41748H241.506C241.506 4.90967 241.618 4.44417 241.843 4.021C242.071 3.59782 242.397 3.26139 242.82 3.01172C243.243 2.75781 243.749 2.63086 244.337 2.63086C244.896 2.63086 245.376 2.73031 245.778 2.9292C246.18 3.12386 246.489 3.40527 246.705 3.77344C246.925 4.1416 247.035 4.58594 247.035 5.10645C247.035 5.38574 246.984 5.66715 246.883 5.95068C246.785 6.23421 246.65 6.51774 246.477 6.80127C246.307 7.08057 246.113 7.35775 245.893 7.63281C245.677 7.90788 245.45 8.17871 245.213 8.44531L242.636 11.3462H247.492ZM250.031 7.42969L249.435 7.2583L249.885 2.75781H254.506V3.46875H250.533L250.209 6.5791C250.37 6.46484 250.603 6.3527 250.907 6.24268C251.216 6.12842 251.563 6.07129 251.948 6.07129C252.359 6.07129 252.731 6.14111 253.065 6.28076C253.404 6.41618 253.694 6.61507 253.935 6.87744C254.176 7.13558 254.362 7.44873 254.494 7.81689C254.625 8.18083 254.69 8.59342 254.69 9.05469C254.69 9.49902 254.635 9.90739 254.525 10.2798C254.415 10.6522 254.248 10.978 254.024 11.2573C253.8 11.5324 253.514 11.7461 253.167 11.8984C252.82 12.0508 252.407 12.127 251.929 12.127C251.561 12.127 251.214 12.0762 250.888 11.9746C250.567 11.8688 250.279 11.7101 250.025 11.4985C249.771 11.2869 249.564 11.0203 249.403 10.6987C249.246 10.3771 249.149 10.0005 249.111 9.56885H249.841C249.892 9.98356 250.004 10.3327 250.177 10.6162C250.351 10.8997 250.583 11.1134 250.875 11.2573C251.172 11.4012 251.523 11.4731 251.929 11.4731C252.259 11.4731 252.547 11.4202 252.792 11.3145C253.042 11.2087 253.25 11.0542 253.415 10.8511C253.584 10.6437 253.711 10.3919 253.795 10.0957C253.884 9.79525 253.929 9.45247 253.929 9.06738C253.929 8.7373 253.882 8.43473 253.789 8.15967C253.696 7.88037 253.558 7.63704 253.376 7.42969C253.199 7.2181 252.979 7.05518 252.716 6.94092C252.454 6.82666 252.153 6.76953 251.815 6.76953C251.375 6.76953 251.024 6.82878 250.761 6.94727C250.503 7.06576 250.26 7.22656 250.031 7.42969Z" fill="#717171"/>
<path d="M287.564 6.95996H288.339C288.813 6.95996 289.208 6.87956 289.526 6.71875C289.847 6.55371 290.089 6.33577 290.25 6.06494C290.415 5.79411 290.497 5.49365 290.497 5.16357C290.497 4.79118 290.427 4.46533 290.288 4.18604C290.148 3.90251 289.934 3.68245 289.646 3.52588C289.363 3.36507 288.999 3.28467 288.555 3.28467C288.165 3.28467 287.818 3.36084 287.514 3.51318C287.209 3.66553 286.968 3.88346 286.79 4.16699C286.612 4.45052 286.523 4.78906 286.523 5.18262H285.768C285.768 4.67904 285.889 4.23682 286.13 3.85596C286.371 3.47087 286.703 3.17041 287.126 2.95459C287.55 2.73877 288.026 2.63086 288.555 2.63086C289.101 2.63086 289.575 2.73031 289.977 2.9292C290.383 3.12809 290.696 3.41797 290.916 3.79883C291.14 4.17969 291.252 4.64307 291.252 5.18896C291.252 5.46826 291.191 5.74333 291.068 6.01416C290.95 6.28499 290.772 6.53044 290.535 6.75049C290.298 6.96631 290.004 7.13981 289.653 7.271C289.302 7.40218 288.893 7.46777 288.428 7.46777H287.564V6.95996ZM287.564 7.61377V7.1123H288.428C288.957 7.1123 289.41 7.17367 289.786 7.29639C290.163 7.41488 290.472 7.58415 290.713 7.8042C290.958 8.02002 291.138 8.27181 291.252 8.55957C291.367 8.84733 291.424 9.15625 291.424 9.48633C291.424 9.90951 291.354 10.284 291.214 10.6099C291.075 10.9357 290.876 11.2129 290.618 11.4414C290.364 11.6657 290.063 11.8371 289.716 11.9556C289.374 12.0698 288.997 12.127 288.586 12.127C288.214 12.127 287.85 12.0719 287.495 11.9619C287.143 11.8519 286.826 11.689 286.542 11.4731C286.263 11.2531 286.041 10.978 285.876 10.6479C285.711 10.3136 285.628 9.92855 285.628 9.49268H286.384C286.384 9.882 286.477 10.2269 286.663 10.5273C286.849 10.8236 287.107 11.0563 287.438 11.2256C287.772 11.3906 288.155 11.4731 288.586 11.4731C289.022 11.4731 289.395 11.3991 289.704 11.251C290.017 11.0986 290.256 10.8765 290.421 10.5845C290.586 10.2925 290.668 9.9349 290.668 9.51172C290.668 9.06738 290.569 8.70557 290.37 8.42627C290.175 8.14697 289.903 7.94173 289.551 7.81055C289.204 7.67936 288.8 7.61377 288.339 7.61377H287.564ZM298.654 6.58545V8.14062C298.654 8.81771 298.59 9.40804 298.463 9.91162C298.336 10.411 298.15 10.8257 297.905 11.1558C297.664 11.4816 297.367 11.7249 297.016 11.8857C296.669 12.0465 296.271 12.127 295.823 12.127C295.467 12.127 295.141 12.0762 294.845 11.9746C294.549 11.873 294.285 11.7186 294.052 11.5112C293.823 11.2996 293.629 11.0352 293.468 10.7178C293.307 10.4004 293.184 10.028 293.1 9.60059C293.015 9.16895 292.973 8.68229 292.973 8.14062V6.58545C292.973 5.90413 293.036 5.31592 293.163 4.8208C293.294 4.32568 293.48 3.9152 293.722 3.58936C293.967 3.26351 294.265 3.0223 294.617 2.86572C294.968 2.70492 295.366 2.62451 295.81 2.62451C296.166 2.62451 296.491 2.67741 296.788 2.7832C297.088 2.88477 297.353 3.03711 297.581 3.24023C297.814 3.44336 298.008 3.70361 298.165 4.021C298.326 4.33415 298.446 4.70443 298.527 5.13184C298.611 5.55924 298.654 6.04378 298.654 6.58545ZM297.898 8.22949V6.49023C297.898 6.07129 297.869 5.69043 297.81 5.34766C297.755 5.00488 297.672 4.70443 297.562 4.44629C297.452 4.18815 297.312 3.97233 297.143 3.79883C296.978 3.62533 296.783 3.49626 296.559 3.41162C296.339 3.32275 296.089 3.27832 295.81 3.27832C295.467 3.27832 295.165 3.34814 294.902 3.48779C294.644 3.62321 294.428 3.82633 294.255 4.09717C294.081 4.36377 293.95 4.69808 293.861 5.1001C293.777 5.50212 293.734 5.96549 293.734 6.49023V8.22949C293.734 8.64421 293.762 9.02295 293.817 9.36572C293.872 9.70426 293.957 10.0047 294.071 10.2671C294.185 10.5295 294.325 10.7516 294.49 10.9336C294.659 11.1113 294.854 11.2467 295.074 11.3398C295.298 11.4287 295.548 11.4731 295.823 11.4731C296.174 11.4731 296.479 11.4033 296.737 11.2637C296.995 11.1198 297.211 10.9103 297.384 10.6353C297.558 10.356 297.687 10.0153 297.771 9.61328C297.856 9.20703 297.898 8.74577 297.898 8.22949Z" fill="#717171"/>
<path d="M36 174.464C36 174.464 100.674 180.17 154.459 174.464C196.843 169.967 209.341 166.099 244.661 151.979C268.671 142.381 299 122 299 122" stroke="#E10606" stroke-width="8" stroke-linecap="square"/>
<path d="M34 172C34 172 71.5205 150.567 124.379 143.221C160.084 138.26 235.145 147.5 262.737 133.794C286.761 121.86 299 107 299 107" stroke="#03AB32" stroke-width="8" stroke-linecap="square"/>
<path d="M7.37451 27.7578V28.6719L3.74365 37H1.97266L5.60352 29.0781H0.90625V27.7578H7.37451ZM14.7124 31.5854V33.1406C14.7124 33.8516 14.6405 34.4588 14.4966 34.9624C14.3527 35.466 14.1453 35.8786 13.8745 36.2002C13.6037 36.5176 13.2799 36.7524 12.9033 36.9048C12.5267 37.0529 12.1077 37.127 11.6465 37.127C11.2783 37.127 10.9355 37.0804 10.6182 36.9873C10.3008 36.89 10.0151 36.7419 9.76123 36.543C9.51156 36.3398 9.29574 36.0817 9.11377 35.7686C8.93604 35.4554 8.7985 35.0809 8.70117 34.645C8.60807 34.2091 8.56152 33.7077 8.56152 33.1406V31.5854C8.56152 30.8745 8.63346 30.2694 8.77734 29.77C8.92546 29.2707 9.13493 28.8623 9.40576 28.5449C9.6766 28.2275 10.0003 27.9969 10.377 27.853C10.7536 27.7049 11.1725 27.6309 11.6338 27.6309C12.0062 27.6309 12.349 27.6774 12.6621 27.7705C12.9795 27.8636 13.263 28.0096 13.5127 28.2085C13.7666 28.4032 13.9824 28.6571 14.1602 28.9702C14.3379 29.2791 14.4733 29.6515 14.5664 30.0874C14.6637 30.519 14.7124 31.0184 14.7124 31.5854ZM13.0366 33.3691V31.3506C13.0366 30.9951 13.0155 30.6862 12.9731 30.4238C12.9351 30.1572 12.8779 29.9308 12.8018 29.7446C12.7256 29.5584 12.6304 29.4082 12.5161 29.2939C12.4019 29.1755 12.2707 29.0887 12.1226 29.0337C11.9744 28.9787 11.8115 28.9512 11.6338 28.9512C11.4137 28.9512 11.217 28.9956 11.0435 29.0845C10.87 29.1691 10.724 29.3045 10.6055 29.4907C10.487 29.6769 10.396 29.9245 10.3325 30.2334C10.2733 30.5381 10.2437 30.9105 10.2437 31.3506V33.3691C10.2437 33.7246 10.2627 34.0356 10.3008 34.3022C10.3431 34.5688 10.4023 34.7974 10.4785 34.9878C10.5589 35.1782 10.6541 35.3348 10.7642 35.4575C10.8784 35.576 11.0096 35.6649 11.1577 35.7241C11.3058 35.7791 11.4688 35.8066 11.6465 35.8066C11.8708 35.8066 12.0675 35.7622 12.2368 35.6733C12.4103 35.5845 12.5563 35.4448 12.6748 35.2544C12.7933 35.0597 12.8822 34.8079 12.9414 34.499C13.0049 34.1859 13.0366 33.8092 13.0366 33.3691Z" fill="#717171"/>
<path d="M2.82959 68.7471L1.49023 68.4233L2.00439 63.7578H7.08887V65.1479H3.39453L3.15332 67.3062C3.28451 67.2257 3.47493 67.1453 3.72461 67.0649C3.97852 66.9803 4.26416 66.938 4.58154 66.938C5.02165 66.938 5.4152 67.0099 5.76221 67.1538C6.10921 67.2935 6.40332 67.4966 6.64453 67.7632C6.88997 68.0298 7.07406 68.3556 7.19678 68.7407C7.32373 69.1216 7.38721 69.5532 7.38721 70.0356C7.38721 70.4588 7.32373 70.8566 7.19678 71.229C7.07406 71.5972 6.88574 71.9251 6.63184 72.2129C6.37793 72.4964 6.05843 72.7207 5.67334 72.8857C5.28825 73.0465 4.83545 73.127 4.31494 73.127C3.92139 73.127 3.54264 73.0698 3.17871 72.9556C2.81901 72.8371 2.49528 72.6657 2.20752 72.4414C1.91976 72.2129 1.68913 71.9336 1.51562 71.6035C1.34635 71.2734 1.25326 70.8947 1.23633 70.4673H2.89307C2.92269 70.7508 2.99886 70.992 3.12158 71.1909C3.2443 71.3898 3.40511 71.5422 3.604 71.6479C3.80713 71.7537 4.04199 71.8066 4.30859 71.8066C4.5498 71.8066 4.75716 71.7622 4.93066 71.6733C5.1084 71.5802 5.25439 71.4512 5.36865 71.2861C5.48291 71.1211 5.56755 70.9264 5.62256 70.7021C5.67757 70.4779 5.70508 70.2324 5.70508 69.9658C5.70508 69.7077 5.67334 69.4728 5.60986 69.2612C5.54639 69.0454 5.44906 68.8592 5.31787 68.7026C5.18669 68.5461 5.02165 68.4255 4.82275 68.3408C4.62809 68.2562 4.39958 68.2139 4.13721 68.2139C3.78597 68.2139 3.51514 68.2668 3.32471 68.3726C3.13851 68.4784 2.97347 68.6032 2.82959 68.7471ZM10.4277 67.6362H11.3735C11.7078 67.6362 11.9829 67.5791 12.1987 67.4648C12.4188 67.3464 12.5817 67.1855 12.6875 66.9824C12.7975 66.7751 12.8525 66.536 12.8525 66.2651C12.8525 65.9985 12.8039 65.7679 12.7065 65.5732C12.6092 65.3743 12.4611 65.222 12.2622 65.1162C12.0675 65.0062 11.8179 64.9512 11.5132 64.9512C11.2677 64.9512 11.0413 64.9998 10.834 65.0972C10.6309 65.1945 10.4679 65.3341 10.3452 65.5161C10.2267 65.6938 10.1675 65.9076 10.1675 66.1572H8.48535C8.48535 65.6579 8.61654 65.2199 8.87891 64.8433C9.14551 64.4624 9.50521 64.1641 9.95801 63.9482C10.4108 63.7324 10.9165 63.6245 11.4751 63.6245C12.0845 63.6245 12.6177 63.7261 13.0747 63.9292C13.536 64.1281 13.8936 64.4222 14.1475 64.8115C14.4056 65.2008 14.5347 65.6833 14.5347 66.2588C14.5347 66.5339 14.4691 66.8089 14.3379 67.084C14.2109 67.3548 14.0226 67.6003 13.7729 67.8203C13.5275 68.0361 13.2249 68.2118 12.8652 68.3472C12.5098 68.4784 12.1014 68.5439 11.6401 68.5439H10.4277V67.6362ZM10.4277 68.9312V68.0361H11.6401C12.1606 68.0361 12.6113 68.0975 12.9922 68.2202C13.3773 68.3387 13.6947 68.508 13.9443 68.728C14.194 68.9438 14.3781 69.1956 14.4966 69.4834C14.6193 69.7712 14.6807 70.0801 14.6807 70.4102C14.6807 70.8418 14.6003 71.2269 14.4395 71.5654C14.2786 71.8997 14.0522 72.1833 13.7603 72.416C13.4725 72.6488 13.134 72.8265 12.7446 72.9492C12.3553 73.0677 11.9342 73.127 11.4814 73.127C11.0879 73.127 10.7049 73.0741 10.3325 72.9683C9.96436 72.8582 9.63216 72.6953 9.33594 72.4795C9.03971 72.2594 8.80485 71.9844 8.63135 71.6543C8.45785 71.32 8.37109 70.9328 8.37109 70.4927H10.0532C10.0532 70.7466 10.1146 70.973 10.2373 71.1719C10.3643 71.3708 10.5378 71.5273 10.7578 71.6416C10.9821 71.7516 11.2339 71.8066 11.5132 71.8066C11.8221 71.8066 12.0866 71.7516 12.3066 71.6416C12.5309 71.5273 12.7023 71.3665 12.8208 71.1592C12.9393 70.9476 12.9985 70.6958 12.9985 70.4038C12.9985 70.0568 12.9329 69.7754 12.8018 69.5596C12.6706 69.3438 12.4823 69.1851 12.2368 69.0835C11.9956 68.9819 11.7078 68.9312 11.3735 68.9312H10.4277Z" fill="#717171"/>
<path d="M3.00098 103.636H3.94678C4.28109 103.636 4.55615 103.579 4.77197 103.465C4.99202 103.346 5.15495 103.186 5.26074 102.982C5.37077 102.775 5.42578 102.536 5.42578 102.265C5.42578 101.999 5.37712 101.768 5.27979 101.573C5.18245 101.374 5.03434 101.222 4.83545 101.116C4.64079 101.006 4.39111 100.951 4.08643 100.951C3.84098 100.951 3.61458 101 3.40723 101.097C3.2041 101.194 3.04118 101.334 2.91846 101.516C2.79997 101.694 2.74072 101.908 2.74072 102.157H1.05859C1.05859 101.658 1.18978 101.22 1.45215 100.843C1.71875 100.462 2.07845 100.164 2.53125 99.9482C2.98405 99.7324 3.48975 99.6245 4.04834 99.6245C4.65771 99.6245 5.19092 99.7261 5.64795 99.9292C6.10921 100.128 6.4668 100.422 6.7207 100.812C6.97884 101.201 7.10791 101.683 7.10791 102.259C7.10791 102.534 7.04232 102.809 6.91113 103.084C6.78418 103.355 6.59587 103.6 6.34619 103.82C6.10075 104.036 5.79818 104.212 5.43848 104.347C5.08301 104.478 4.67464 104.544 4.21338 104.544H3.00098V103.636ZM3.00098 104.931V104.036H4.21338C4.73389 104.036 5.18457 104.097 5.56543 104.22C5.95052 104.339 6.2679 104.508 6.51758 104.728C6.76725 104.944 6.95133 105.196 7.06982 105.483C7.19255 105.771 7.25391 106.08 7.25391 106.41C7.25391 106.842 7.1735 107.227 7.0127 107.565C6.85189 107.9 6.62549 108.183 6.3335 108.416C6.04574 108.649 5.70719 108.826 5.31787 108.949C4.92855 109.068 4.50749 109.127 4.05469 109.127C3.66113 109.127 3.27816 109.074 2.90576 108.968C2.5376 108.858 2.2054 108.695 1.90918 108.479C1.61296 108.259 1.37809 107.984 1.20459 107.654C1.03109 107.32 0.944336 106.933 0.944336 106.493H2.62646C2.62646 106.747 2.68783 106.973 2.81055 107.172C2.9375 107.371 3.111 107.527 3.33105 107.642C3.55534 107.752 3.80713 107.807 4.08643 107.807C4.39535 107.807 4.65983 107.752 4.87988 107.642C5.10417 107.527 5.27555 107.367 5.39404 107.159C5.51253 106.948 5.57178 106.696 5.57178 106.404C5.57178 106.057 5.50618 105.775 5.375 105.56C5.24382 105.344 5.0555 105.185 4.81006 105.083C4.56885 104.982 4.28109 104.931 3.94678 104.931H3.00098ZM10.2563 104.747L8.91699 104.423L9.43115 99.7578H14.5156V101.148H10.8213L10.5801 103.306C10.7113 103.226 10.9017 103.145 11.1514 103.065C11.4053 102.98 11.6909 102.938 12.0083 102.938C12.4484 102.938 12.842 103.01 13.189 103.154C13.536 103.293 13.8301 103.497 14.0713 103.763C14.3167 104.03 14.5008 104.356 14.6235 104.741C14.7505 105.122 14.814 105.553 14.814 106.036C14.814 106.459 14.7505 106.857 14.6235 107.229C14.5008 107.597 14.3125 107.925 14.0586 108.213C13.8047 108.496 13.4852 108.721 13.1001 108.886C12.715 109.047 12.2622 109.127 11.7417 109.127C11.3481 109.127 10.9694 109.07 10.6055 108.956C10.2458 108.837 9.92204 108.666 9.63428 108.441C9.34652 108.213 9.11589 107.934 8.94238 107.604C8.77311 107.273 8.68001 106.895 8.66309 106.467H10.3198C10.3494 106.751 10.4256 106.992 10.5483 107.191C10.6711 107.39 10.8319 107.542 11.0308 107.648C11.2339 107.754 11.4688 107.807 11.7354 107.807C11.9766 107.807 12.1839 107.762 12.3574 107.673C12.5352 107.58 12.6812 107.451 12.7954 107.286C12.9097 107.121 12.9943 106.926 13.0493 106.702C13.1043 106.478 13.1318 106.232 13.1318 105.966C13.1318 105.708 13.1001 105.473 13.0366 105.261C12.9731 105.045 12.8758 104.859 12.7446 104.703C12.6134 104.546 12.4484 104.425 12.2495 104.341C12.0549 104.256 11.8263 104.214 11.564 104.214C11.2127 104.214 10.9419 104.267 10.7515 104.373C10.5653 104.478 10.4002 104.603 10.2563 104.747Z" fill="#717171"/>
<path d="M5.48291 135.732V145H3.80078V137.694L1.57275 138.43V137.072L5.29248 135.732H5.48291ZM14.7251 142.474C14.7251 143.049 14.5897 143.536 14.3188 143.934C14.0522 144.327 13.6862 144.625 13.2207 144.829C12.7594 145.028 12.2347 145.127 11.6465 145.127C11.0625 145.127 10.5356 145.028 10.0659 144.829C9.60042 144.625 9.23014 144.327 8.95508 143.934C8.68424 143.536 8.54883 143.049 8.54883 142.474C8.54883 142.089 8.625 141.739 8.77734 141.426C8.93392 141.113 9.14974 140.844 9.4248 140.62C9.69987 140.392 10.0257 140.218 10.4023 140.1C10.779 139.977 11.1895 139.916 11.6338 139.916C12.2262 139.916 12.7552 140.023 13.2207 140.239C13.6904 140.451 14.0586 140.749 14.3252 141.134C14.5918 141.515 14.7251 141.962 14.7251 142.474ZM13.0366 142.372C13.0366 142.076 12.9774 141.82 12.8589 141.604C12.7446 141.384 12.5817 141.215 12.3701 141.096C12.1585 140.978 11.9131 140.918 11.6338 140.918C11.3503 140.918 11.1027 140.978 10.8911 141.096C10.6838 141.215 10.5208 141.384 10.4023 141.604C10.2881 141.82 10.231 142.076 10.231 142.372C10.231 142.673 10.2881 142.931 10.4023 143.146C10.5208 143.358 10.6859 143.521 10.8975 143.635C11.109 143.75 11.3587 143.807 11.6465 143.807C11.9342 143.807 12.1818 143.75 12.3892 143.635C12.5965 143.521 12.7552 143.358 12.8652 143.146C12.9795 142.931 13.0366 142.673 13.0366 142.372ZM14.522 138.195C14.522 138.661 14.3993 139.076 14.1538 139.439C13.9084 139.799 13.5677 140.081 13.1318 140.284C12.7002 140.487 12.2051 140.588 11.6465 140.588C11.0879 140.588 10.5885 140.487 10.1484 140.284C9.71257 140.081 9.36979 139.799 9.12012 139.439C8.87467 139.076 8.75195 138.661 8.75195 138.195C8.75195 137.645 8.87679 137.18 9.12646 136.799C9.37614 136.414 9.7168 136.122 10.1484 135.923C10.5843 135.724 11.0794 135.625 11.6338 135.625C12.1966 135.625 12.696 135.724 13.1318 135.923C13.5677 136.122 13.9084 136.414 14.1538 136.799C14.3993 137.18 14.522 137.645 14.522 138.195ZM12.8462 138.265C12.8462 138.003 12.7975 137.774 12.7002 137.58C12.6029 137.381 12.4632 137.226 12.2812 137.116C12.1035 137.006 11.8877 136.951 11.6338 136.951C11.3883 136.951 11.1768 137.004 10.999 137.11C10.8213 137.216 10.6838 137.368 10.5864 137.567C10.4891 137.762 10.4404 137.994 10.4404 138.265C10.4404 138.532 10.4891 138.764 10.5864 138.963C10.6838 139.162 10.8213 139.319 10.999 139.433C11.181 139.543 11.3968 139.598 11.6465 139.598C11.8962 139.598 12.1099 139.543 12.2876 139.433C12.4653 139.319 12.6029 139.162 12.7002 138.963C12.7975 138.764 12.8462 138.532 12.8462 138.265Z" fill="#717171"/>
<path d="M10.7856 175.585V177.141C10.7856 177.852 10.7137 178.459 10.5698 178.962C10.4259 179.466 10.2186 179.879 9.94775 180.2C9.67692 180.518 9.35319 180.752 8.97656 180.905C8.59993 181.053 8.18099 181.127 7.71973 181.127C7.35156 181.127 7.00879 181.08 6.69141 180.987C6.37402 180.89 6.08838 180.742 5.83447 180.543C5.5848 180.34 5.36898 180.082 5.18701 179.769C5.00928 179.455 4.87174 179.081 4.77441 178.645C4.68132 178.209 4.63477 177.708 4.63477 177.141V175.585C4.63477 174.875 4.70671 174.269 4.85059 173.77C4.9987 173.271 5.20817 172.862 5.479 172.545C5.74984 172.228 6.07357 171.997 6.4502 171.853C6.82682 171.705 7.24577 171.631 7.70703 171.631C8.07943 171.631 8.4222 171.677 8.73535 171.771C9.05273 171.864 9.33626 172.01 9.58594 172.208C9.83984 172.403 10.0557 172.657 10.2334 172.97C10.4111 173.279 10.5465 173.652 10.6396 174.087C10.737 174.519 10.7856 175.018 10.7856 175.585ZM9.10986 177.369V175.351C9.10986 174.995 9.0887 174.686 9.04639 174.424C9.0083 174.157 8.95117 173.931 8.875 173.745C8.79883 173.558 8.70361 173.408 8.58936 173.294C8.4751 173.175 8.34391 173.089 8.1958 173.034C8.04769 172.979 7.88477 172.951 7.70703 172.951C7.48698 172.951 7.2902 172.996 7.1167 173.084C6.9432 173.169 6.7972 173.305 6.67871 173.491C6.56022 173.677 6.46924 173.924 6.40576 174.233C6.34652 174.538 6.31689 174.91 6.31689 175.351V177.369C6.31689 177.725 6.33594 178.036 6.37402 178.302C6.41634 178.569 6.47559 178.797 6.55176 178.988C6.63216 179.178 6.72738 179.335 6.8374 179.458C6.95166 179.576 7.08285 179.665 7.23096 179.724C7.37907 179.779 7.54199 179.807 7.71973 179.807C7.94401 179.807 8.14079 179.762 8.31006 179.673C8.48356 179.584 8.62956 179.445 8.74805 179.254C8.86654 179.06 8.9554 178.808 9.01465 178.499C9.07812 178.186 9.10986 177.809 9.10986 177.369Z" fill="#717171"/>
</svg>
