<svg width="23" height="22" viewBox="0 0 23 22" fill="none" xmlns="http://www.w3.org/2000/svg">
<path d="M19.75 1.83337L17.9167 3.66671M17.9167 3.66671L20.6667 6.41671L17.4583 9.62504L14.7083 6.87504M17.9167 3.66671L14.7083 6.87504M10.9408 10.6425C11.4142 11.1096 11.7904 11.6656 12.0479 12.2786C12.3055 12.8916 12.4392 13.5495 12.4414 14.2145C12.4437 14.8794 12.3144 15.5382 12.0609 16.1529C11.8075 16.7676 11.435 17.3262 10.9648 17.7963C10.4946 18.2665 9.9361 18.639 9.32137 18.8925C8.70663 19.1459 8.04784 19.2752 7.38292 19.273C6.718 19.2708 6.06009 19.137 5.44707 18.8795C4.83404 18.6219 4.27802 18.2457 3.81101 17.7724C2.89263 16.8215 2.38446 15.548 2.39594 14.2261C2.40743 12.9042 2.93766 11.6396 3.87242 10.7049C4.80719 9.77011 6.0717 9.23988 7.39361 9.22839C8.71552 9.21691 9.98905 9.72508 10.9399 10.6435L10.9408 10.6425ZM10.9408 10.6425L14.7083 6.87504" stroke="#717171" stroke-width="2" stroke-linecap="round" stroke-linejoin="round"/>
</svg>
