<svg width="22" height="23" viewBox="0 0 22 23" fill="none" xmlns="http://www.w3.org/2000/svg">
<path d="M19.25 2.33325L17.4167 4.16659M17.4167 4.16659L20.1667 6.91659L16.9583 10.1249L14.2083 7.37492M17.4167 4.16659L14.2083 7.37492M10.4408 11.1424C10.9142 11.6094 11.2904 12.1655 11.5479 12.7785C11.8055 13.3915 11.9392 14.0494 11.9414 14.7143C11.9437 15.3793 11.8144 16.038 11.5609 16.6528C11.3075 17.2675 10.935 17.826 10.4648 18.2962C9.99464 18.7664 9.4361 19.1389 8.82137 19.3923C8.20663 19.6458 7.54784 19.7751 6.88292 19.7729C6.218 19.7706 5.56009 19.6369 4.94707 19.3794C4.33404 19.1218 3.77802 18.7456 3.31101 18.2723C2.39263 17.3214 1.88446 16.0478 1.89594 14.7259C1.90743 13.404 2.43766 12.1395 3.37242 11.2047C4.30719 10.27 5.5717 9.73976 6.89361 9.72827C8.21552 9.71678 9.48905 10.225 10.4399 11.1433L10.4408 11.1424ZM10.4408 11.1424L14.2083 7.37492" stroke="#171A21" stroke-width="2" stroke-linecap="round" stroke-linejoin="round"/>
</svg>
