<svg width="42" height="35" viewBox="0 0 42 35" fill="none" xmlns="http://www.w3.org/2000/svg">
<path fill-rule="evenodd" clip-rule="evenodd" d="M4.04499 8.47328L5.14063 18.0634L16.0336 18.1395L17.0531 8.47328C19.6336 8.47328 20.5897 7.14074 20.5897 4.52218H17.0531C17.0235 2.53818 16.7824 0.0169212 14.8238 0C14.8238 0 14.8238 4.52218 10.5427 4.52218C6.26166 4.52218 6.26589 0 6.26589 0C4.30726 0 4.06191 2.53818 4.03653 4.52218H0.5C0.5 7.14074 1.45182 8.47328 4.04499 8.47328ZM19.1133 10.3769C18.9229 11.8787 18.0092 19.9458 18.0092 19.9458L10.7246 20.5296L9.9674 34.4896L14.0919 34.3331L14.938 26.1221H18.1869L18.7579 34.6546L22.8909 34.625L23.4705 26.249L35.6495 25.9105L36.4067 34.7138L39.8544 34.6546L41.5 22.4459L38.5642 17.3188V9.1332C38.5642 6.00702 37.2189 4.4545 33.7416 4.4545C31.7238 4.4545 28.8303 4.51372 23.1998 4.51372C23.1998 7.64837 21.1058 10.3769 19.1133 10.3769ZM28.5468 34.6969L32.058 34.8111L33.9658 27.7211L29.3506 27.9199L28.5468 34.6969Z" fill="#717171"/>
</svg>
