<svg width="24" height="23" viewBox="0 0 24 23" fill="none" xmlns="http://www.w3.org/2000/svg">
<g clip-path="url(#clip0_1666_103)">
<path d="M12 14.375C13.6569 14.375 15 13.0878 15 11.5C15 9.91218 13.6569 8.625 12 8.625C10.3431 8.625 9 9.91218 9 11.5C9 13.0878 10.3431 14.375 12 14.375Z" stroke="#282FD9" stroke-width="2" stroke-linecap="round" stroke-linejoin="round"/>
<path d="M19.4 14.3752C19.2669 14.6642 19.2272 14.9848 19.286 15.2957C19.3448 15.6066 19.4995 15.8935 19.73 16.1193L19.79 16.1768C19.976 16.3548 20.1235 16.5662 20.2241 16.7989C20.3248 17.0316 20.3766 17.281 20.3766 17.5329C20.3766 17.7848 20.3248 18.0342 20.2241 18.2668C20.1235 18.4995 19.976 18.7109 19.79 18.8889C19.6043 19.0671 19.3837 19.2085 19.1409 19.3049C18.8981 19.4014 18.6378 19.451 18.375 19.451C18.1122 19.451 17.8519 19.4014 17.6091 19.3049C17.3663 19.2085 17.1457 19.0671 16.96 18.8889L16.9 18.8314C16.6643 18.6105 16.365 18.4623 16.0406 18.4059C15.7162 18.3495 15.3816 18.3876 15.08 18.5152C14.7842 18.6366 14.532 18.8384 14.3543 19.0955C14.1766 19.3526 14.0813 19.6539 14.08 19.9622V20.1252C14.08 20.6335 13.8693 21.121 13.4942 21.4805C13.1191 21.8399 12.6104 22.0418 12.08 22.0418C11.5496 22.0418 11.0409 21.8399 10.6658 21.4805C10.2907 21.121 10.08 20.6335 10.08 20.1252V20.0389C10.0723 19.7217 9.96512 19.4141 9.77251 19.156C9.5799 18.8979 9.31074 18.7014 9 18.5918C8.69838 18.4643 8.36381 18.4262 8.03941 18.4826C7.71502 18.5389 7.41568 18.6871 7.18 18.9081L7.12 18.9656C6.93425 19.1438 6.71368 19.2852 6.47088 19.3816C6.22808 19.4781 5.96783 19.5277 5.705 19.5277C5.44217 19.5277 5.18192 19.4781 4.93912 19.3816C4.69632 19.2852 4.47575 19.1438 4.29 18.9656C4.10405 18.7876 3.95653 18.5762 3.85588 18.3435C3.75523 18.1108 3.70343 17.8614 3.70343 17.6095C3.70343 17.3577 3.75523 17.1082 3.85588 16.8756C3.95653 16.6429 4.10405 16.4315 4.29 16.2535L4.35 16.196C4.58054 15.9701 4.73519 15.6833 4.794 15.3724C4.85282 15.0615 4.81312 14.7409 4.68 14.4518C4.55324 14.1684 4.34276 13.9266 4.07447 13.7564C3.80618 13.5861 3.49179 13.4947 3.17 13.4935H3C2.46957 13.4935 1.96086 13.2916 1.58579 12.9321C1.21071 12.5727 1 12.0852 1 11.5768C1 11.0685 1.21071 10.581 1.58579 10.2215C1.96086 9.8621 2.46957 9.66016 3 9.66016H3.09C3.42099 9.65274 3.742 9.55007 4.0113 9.36549C4.28059 9.1809 4.48572 8.92295 4.6 8.62516C4.73312 8.33611 4.77282 8.01548 4.714 7.7046C4.65519 7.39372 4.50054 7.10686 4.27 6.881L4.21 6.8235C4.02405 6.64549 3.87653 6.4341 3.77588 6.20142C3.67523 5.96874 3.62343 5.71933 3.62343 5.46745C3.62343 5.21557 3.67523 4.96617 3.77588 4.73349C3.87653 4.50081 4.02405 4.28942 4.21 4.11141C4.39575 3.93321 4.61632 3.79184 4.85912 3.69538C5.10192 3.59893 5.36217 3.54928 5.625 3.54928C5.88783 3.54928 6.14808 3.59893 6.39088 3.69538C6.63368 3.79184 6.85425 3.93321 7.04 4.11141L7.1 4.16891C7.33568 4.38984 7.63502 4.53805 7.95941 4.59442C8.28381 4.65079 8.61838 4.61273 8.92 4.48516H9C9.29577 4.36368 9.54802 4.16197 9.72569 3.90486C9.90337 3.64775 9.99872 3.34646 10 3.03808V2.87516C10 2.36683 10.2107 1.87932 10.5858 1.51987C10.9609 1.16043 11.4696 0.958496 12 0.958496C12.5304 0.958496 13.0391 1.16043 13.4142 1.51987C13.7893 1.87932 14 2.36683 14 2.87516V2.96141C14.0013 3.26979 14.0966 3.57108 14.2743 3.82819C14.452 4.0853 14.7042 4.28702 15 4.4085C15.3016 4.53606 15.6362 4.57412 15.9606 4.51775C16.285 4.46138 16.5843 4.31318 16.82 4.09225L16.88 4.03475C17.0657 3.85654 17.2863 3.71517 17.5291 3.61872C17.7719 3.52226 18.0322 3.47261 18.295 3.47261C18.5578 3.47261 18.8181 3.52226 19.0609 3.61872C19.3037 3.71517 19.5243 3.85654 19.71 4.03475C19.896 4.21275 20.0435 4.42414 20.1441 4.65682C20.2448 4.8895 20.2966 5.13891 20.2966 5.39079C20.2966 5.64267 20.2448 5.89208 20.1441 6.12476C20.0435 6.35744 19.896 6.56882 19.71 6.74683L19.65 6.80433C19.4195 7.03019 19.2648 7.31705 19.206 7.62793C19.1472 7.93881 19.1869 8.25945 19.32 8.5485V8.62516C19.4468 8.90861 19.6572 9.15035 19.9255 9.32062C20.1938 9.49089 20.5082 9.58227 20.83 9.5835H21C21.5304 9.5835 22.0391 9.78543 22.4142 10.1449C22.7893 10.5043 23 10.9918 23 11.5002C23 12.0085 22.7893 12.496 22.4142 12.8555C22.0391 13.2149 21.5304 13.4168 21 13.4168H20.91C20.5882 13.4181 20.2738 13.5094 20.0055 13.6797C19.7372 13.85 19.5268 14.0917 19.4 14.3752Z" stroke="#282FD9" stroke-width="2" stroke-linecap="round" stroke-linejoin="round"/>
</g>
<defs>
<clipPath id="clip0_1666_103">
<rect width="24" height="23" fill="white"/>
</clipPath>
</defs>
</svg>
